<mxfile host="Electron" modified="2024-07-17T18:06:55.786Z" agent="Mozilla/5.0 (X11; Linux x86_64) AppleWebKit/537.36 (KHTML, like Gecko) draw.io/24.6.4 Chrome/124.0.6367.207 Electron/30.0.6 Safari/537.36" etag="g_T1P-cty5_FKpKXKd47" version="24.6.4" type="device">
  <diagram name="Page-1" id="eONn0NUxRyeM69CcAGFY">
    <mxGraphModel dx="1050" dy="633" grid="1" gridSize="10" guides="1" tooltips="1" connect="1" arrows="1" fold="1" page="1" pageScale="1" pageWidth="827" pageHeight="1169" math="0" shadow="0">
      <root>
        <mxCell id="0" />
        <mxCell id="1" parent="0" />
        <mxCell id="xdL-NwXwCahAMoajfejD-3" style="edgeStyle=orthogonalEdgeStyle;rounded=0;orthogonalLoop=1;jettySize=auto;html=1;" parent="1" source="xdL-NwXwCahAMoajfejD-1" target="xdL-NwXwCahAMoajfejD-2" edge="1">
          <mxGeometry relative="1" as="geometry" />
        </mxCell>
        <mxCell id="xdL-NwXwCahAMoajfejD-1" value="Actor" style="shape=umlActor;verticalLabelPosition=bottom;verticalAlign=top;html=1;outlineConnect=0;" parent="1" vertex="1">
          <mxGeometry x="80" y="220" width="30" height="60" as="geometry" />
        </mxCell>
        <mxCell id="xdL-NwXwCahAMoajfejD-5" style="edgeStyle=orthogonalEdgeStyle;rounded=0;orthogonalLoop=1;jettySize=auto;html=1;entryX=0;entryY=0.5;entryDx=0;entryDy=0;" parent="1" source="xdL-NwXwCahAMoajfejD-2" target="xdL-NwXwCahAMoajfejD-4" edge="1">
          <mxGeometry relative="1" as="geometry" />
        </mxCell>
        <mxCell id="xdL-NwXwCahAMoajfejD-2" value="Spiele gibt seinen Spielernamen an" style="ellipse;whiteSpace=wrap;html=1;" parent="1" vertex="1">
          <mxGeometry x="190" y="225" width="120" height="50" as="geometry" />
        </mxCell>
        <mxCell id="xdL-NwXwCahAMoajfejD-7" style="edgeStyle=orthogonalEdgeStyle;rounded=0;orthogonalLoop=1;jettySize=auto;html=1;" parent="1" source="xdL-NwXwCahAMoajfejD-4" target="xdL-NwXwCahAMoajfejD-6" edge="1">
          <mxGeometry relative="1" as="geometry" />
        </mxCell>
        <mxCell id="xdL-NwXwCahAMoajfejD-4" value="Nutzer sucht in der Lobby nach offenen Spielen" style="ellipse;whiteSpace=wrap;html=1;" parent="1" vertex="1">
          <mxGeometry x="390" y="212.5" width="120" height="75" as="geometry" />
        </mxCell>
        <mxCell id="xdL-NwXwCahAMoajfejD-9" style="edgeStyle=orthogonalEdgeStyle;rounded=0;orthogonalLoop=1;jettySize=auto;html=1;entryX=0;entryY=0.5;entryDx=0;entryDy=0;fontFamily=Helvetica;fontSize=12;fontColor=default;" parent="1" source="xdL-NwXwCahAMoajfejD-6" target="xdL-NwXwCahAMoajfejD-8" edge="1">
          <mxGeometry relative="1" as="geometry" />
        </mxCell>
        <mxCell id="xdL-NwXwCahAMoajfejD-6" value="Tritt einem Spiel bei" style="ellipse;whiteSpace=wrap;html=1;" parent="1" vertex="1">
          <mxGeometry x="590" y="212.5" width="120" height="75" as="geometry" />
        </mxCell>
        <mxCell id="xdL-NwXwCahAMoajfejD-8" value="Spiel Pong Reimagined" style="ellipse;whiteSpace=wrap;html=1;" parent="1" vertex="1">
          <mxGeometry x="790" y="212.5" width="120" height="75" as="geometry" />
        </mxCell>
        <mxCell id="xdL-NwXwCahAMoajfejD-13" style="edgeStyle=orthogonalEdgeStyle;rounded=0;orthogonalLoop=1;jettySize=auto;html=1;entryX=0;entryY=0.5;entryDx=0;entryDy=0;fontFamily=Helvetica;fontSize=12;fontColor=default;" parent="1" source="xdL-NwXwCahAMoajfejD-10" target="xdL-NwXwCahAMoajfejD-11" edge="1">
          <mxGeometry relative="1" as="geometry" />
        </mxCell>
        <mxCell id="xdL-NwXwCahAMoajfejD-10" value="Actor" style="shape=umlActor;verticalLabelPosition=bottom;verticalAlign=top;html=1;outlineConnect=0;" parent="1" vertex="1">
          <mxGeometry x="80" y="350" width="30" height="60" as="geometry" />
        </mxCell>
        <mxCell id="xdL-NwXwCahAMoajfejD-14" style="edgeStyle=orthogonalEdgeStyle;rounded=0;orthogonalLoop=1;jettySize=auto;html=1;entryX=0;entryY=0.5;entryDx=0;entryDy=0;fontFamily=Helvetica;fontSize=12;fontColor=default;" parent="1" source="xdL-NwXwCahAMoajfejD-11" target="xdL-NwXwCahAMoajfejD-12" edge="1">
          <mxGeometry relative="1" as="geometry" />
        </mxCell>
        <mxCell id="xdL-NwXwCahAMoajfejD-11" value="Öffnet die Webseite" style="ellipse;whiteSpace=wrap;html=1;" parent="1" vertex="1">
          <mxGeometry x="170" y="355" width="120" height="50" as="geometry" />
        </mxCell>
        <mxCell id="xdL-NwXwCahAMoajfejD-12" value="Erstellt ein neues Spiel" style="ellipse;whiteSpace=wrap;html=1;" parent="1" vertex="1">
          <mxGeometry x="353" y="348.75" width="120" height="62.5" as="geometry" />
        </mxCell>
        <mxCell id="xdL-NwXwCahAMoajfejD-15" value="Wartet auf Spieler" style="ellipse;whiteSpace=wrap;html=1;" parent="1" vertex="1">
          <mxGeometry x="540" y="348.75" width="120" height="62.5" as="geometry" />
        </mxCell>
        <mxCell id="xdL-NwXwCahAMoajfejD-16" style="edgeStyle=orthogonalEdgeStyle;rounded=0;orthogonalLoop=1;jettySize=auto;html=1;entryX=0;entryY=0.5;entryDx=0;entryDy=0;fontFamily=Helvetica;fontSize=12;fontColor=default;" parent="1" source="xdL-NwXwCahAMoajfejD-12" target="xdL-NwXwCahAMoajfejD-15" edge="1">
          <mxGeometry relative="1" as="geometry" />
        </mxCell>
        <mxCell id="xdL-NwXwCahAMoajfejD-19" value="Pong Reimagined" style="swimlane;whiteSpace=wrap;html=1;strokeColor=default;align=center;verticalAlign=middle;fontFamily=Helvetica;fontSize=12;fontColor=default;fillColor=default;" parent="1" vertex="1">
          <mxGeometry x="330" y="585" width="160" height="300" as="geometry" />
        </mxCell>
        <mxCell id="xdL-NwXwCahAMoajfejD-29" style="edgeStyle=orthogonalEdgeStyle;rounded=0;orthogonalLoop=1;jettySize=auto;html=1;entryX=0.5;entryY=0;entryDx=0;entryDy=0;fontFamily=Helvetica;fontSize=12;fontColor=default;" parent="xdL-NwXwCahAMoajfejD-19" source="xdL-NwXwCahAMoajfejD-22" target="xdL-NwXwCahAMoajfejD-23" edge="1">
          <mxGeometry relative="1" as="geometry" />
        </mxCell>
        <mxCell id="xdL-NwXwCahAMoajfejD-30" value="2 tritt spiel von 1 bei" style="edgeLabel;html=1;align=center;verticalAlign=middle;resizable=0;points=[];strokeColor=default;fontFamily=Helvetica;fontSize=12;fontColor=default;fillColor=default;" parent="xdL-NwXwCahAMoajfejD-29" vertex="1" connectable="0">
          <mxGeometry x="0.3483" relative="1" as="geometry">
            <mxPoint as="offset" />
          </mxGeometry>
        </mxCell>
        <mxCell id="xdL-NwXwCahAMoajfejD-31" value="" style="edgeLabel;html=1;align=center;verticalAlign=middle;resizable=0;points=[];strokeColor=default;fontFamily=Helvetica;fontSize=12;fontColor=default;fillColor=default;" parent="xdL-NwXwCahAMoajfejD-29" vertex="1" connectable="0">
          <mxGeometry x="0.4027" relative="1" as="geometry">
            <mxPoint as="offset" />
          </mxGeometry>
        </mxCell>
        <mxCell id="xdL-NwXwCahAMoajfejD-22" value="Lobby" style="ellipse;whiteSpace=wrap;html=1;strokeColor=default;align=center;verticalAlign=middle;fontFamily=Helvetica;fontSize=12;fontColor=default;fillColor=default;" parent="xdL-NwXwCahAMoajfejD-19" vertex="1">
          <mxGeometry x="23" y="70" width="120" height="60" as="geometry" />
        </mxCell>
        <mxCell id="xdL-NwXwCahAMoajfejD-23" value="Pong" style="ellipse;whiteSpace=wrap;html=1;strokeColor=default;align=center;verticalAlign=middle;fontFamily=Helvetica;fontSize=12;fontColor=default;fillColor=default;" parent="xdL-NwXwCahAMoajfejD-19" vertex="1">
          <mxGeometry x="23" y="200" width="120" height="60" as="geometry" />
        </mxCell>
        <mxCell id="xdL-NwXwCahAMoajfejD-24" style="edgeStyle=orthogonalEdgeStyle;rounded=0;orthogonalLoop=1;jettySize=auto;html=1;entryX=0;entryY=0.5;entryDx=0;entryDy=0;fontFamily=Helvetica;fontSize=12;fontColor=default;" parent="1" source="xdL-NwXwCahAMoajfejD-20" target="xdL-NwXwCahAMoajfejD-22" edge="1">
          <mxGeometry relative="1" as="geometry" />
        </mxCell>
        <mxCell id="xdL-NwXwCahAMoajfejD-25" value="öffnet" style="edgeLabel;html=1;align=center;verticalAlign=middle;resizable=0;points=[];strokeColor=default;fontFamily=Helvetica;fontSize=12;fontColor=default;fillColor=default;" parent="xdL-NwXwCahAMoajfejD-24" vertex="1" connectable="0">
          <mxGeometry x="-0.3278" relative="1" as="geometry">
            <mxPoint x="-10" as="offset" />
          </mxGeometry>
        </mxCell>
        <mxCell id="xdL-NwXwCahAMoajfejD-20" value="Actor 2" style="shape=umlActor;verticalLabelPosition=bottom;verticalAlign=top;html=1;outlineConnect=0;strokeColor=default;align=center;fontFamily=Helvetica;fontSize=12;fontColor=default;fillColor=default;" parent="1" vertex="1">
          <mxGeometry x="230" y="635" width="30" height="60" as="geometry" />
        </mxCell>
        <mxCell id="xdL-NwXwCahAMoajfejD-27" style="edgeStyle=orthogonalEdgeStyle;rounded=0;orthogonalLoop=1;jettySize=auto;html=1;entryX=1;entryY=0.5;entryDx=0;entryDy=0;fontFamily=Helvetica;fontSize=12;fontColor=default;" parent="1" source="xdL-NwXwCahAMoajfejD-26" target="xdL-NwXwCahAMoajfejD-23" edge="1">
          <mxGeometry relative="1" as="geometry" />
        </mxCell>
        <mxCell id="xdL-NwXwCahAMoajfejD-28" value="erstellt spiel" style="edgeLabel;html=1;align=center;verticalAlign=middle;resizable=0;points=[];strokeColor=default;fontFamily=Helvetica;fontSize=12;fontColor=default;fillColor=default;" parent="xdL-NwXwCahAMoajfejD-27" vertex="1" connectable="0">
          <mxGeometry x="-0.1384" y="-1" relative="1" as="geometry">
            <mxPoint as="offset" />
          </mxGeometry>
        </mxCell>
        <mxCell id="xdL-NwXwCahAMoajfejD-26" value="Actor 1" style="shape=umlActor;verticalLabelPosition=bottom;verticalAlign=top;html=1;outlineConnect=0;strokeColor=default;align=center;fontFamily=Helvetica;fontSize=12;fontColor=default;fillColor=default;" parent="1" vertex="1">
          <mxGeometry x="590" y="785" width="30" height="60" as="geometry" />
        </mxCell>
      </root>
    </mxGraphModel>
  </diagram>
</mxfile>
